<svg xmlns="http://www.w3.org/2000/svg" viewBox="0 0 401.19 179.09"><defs><style>.cls-1{fill:#e5e5e5;}.cls-2{fill:#bababa;}.cls-3{fill:#fff;}</style></defs><title>Asset 2</title><g id="Layer_2" data-name="Layer 2"><g id="Layer_1-2" data-name="Layer 1"><g id="_Group_" data-name="&lt;Group&gt;"><g id="_Group_2" data-name="&lt;Group&gt;"><polygon id="_Path_" data-name="&lt;Path&gt;" class="cls-1" points="226.06 14.38 227.81 25.38 230.9 16.99 254.15 0 226.06 14.38"/><polygon id="_Path_2" data-name="&lt;Path&gt;" class="cls-2" points="234.51 18.93 227.81 25.38 230.9 16.99 234.51 18.93"/><polygon id="_Path_3" data-name="&lt;Path&gt;" class="cls-3" points="230.9 16.99 254.15 0 226.06 14.38 214.71 8.27 254.15 0 245.08 24.61 230.9 16.99"/><polygon id="_Path_4" data-name="&lt;Path&gt;" class="cls-3" points="137.74 24.42 181.1 15.32 202.14 26.64 201.89 38.19 211.1 31.46 237.35 45.58 227.38 72.65 137.74 24.42"/><g id="_Group_3" data-name="&lt;Group&gt;"><polygon id="_Path_5" data-name="&lt;Path&gt;" class="cls-1" points="171.26 42.45 179.21 72.2 185.54 50.13 201.89 38.19 202.14 26.64 171.26 42.45"/><polygon id="_Path_6" data-name="&lt;Path&gt;" class="cls-2" points="196.18 55.86 179.21 72.2 185.54 50.13 196.18 55.86"/></g></g><g id="_Group_4" data-name="&lt;Group&gt;"><g id="_Group_5" data-name="&lt;Group&gt;"><path class="cls-3" d="M34.76,113.73l34.76,65.36h-15l-5-9.71H19.94l-4.85,9.71H0Zm8.15,44-8.15-16.56L26.7,157.68Z"/></g><g id="_Group_6" data-name="&lt;Group&gt;"><path class="cls-3" d="M129.34,167.21v11.88H70l37.28-51.41H74.29V115.81h58.08L95,167.21Z"/></g><g id="_Group_7" data-name="&lt;Group&gt;"><path class="cls-3" d="M153.7,141.73H184v12H153.7v13.52H188v11.88H140V115.72h48V127.6H153.7Z"/></g><g id="_Group_8" data-name="&lt;Group&gt;"><path class="cls-3" d="M265.09,179.09H251.31V148.83l-19.42,22.54-19.42-22.54v30.25H198.69V113.73l33.2,37.45,33.2-37.45Z"/></g><g id="_Group_9" data-name="&lt;Group&gt;"><path class="cls-3" d="M293.27,141.73h30.34v12H293.27v13.52h34.33v11.88h-48V115.72h48V127.6H293.27Z"/></g><g id="_Group_10" data-name="&lt;Group&gt;"><path class="cls-3" d="M334.09,115.81h17.25l16.38,21.85,16.38-21.85h17.08l-24.88,31.9,24.45,31.38H383.59L367.73,158l-15.86,21.06H334.61l24.53-31.38Z"/></g></g></g></g></g></svg>