<?xml version="1.0" encoding="iso-8859-1"?>
<!-- Generator: Adobe Illustrator 18.0.0, SVG Export Plug-In . SVG Version: 6.00 Build 0)  -->
<!DOCTYPE svg PUBLIC "-//W3C//DTD SVG 1.1//EN" "http://www.w3.org/Graphics/SVG/1.1/DTD/svg11.dtd">
<svg xmlns="http://www.w3.org/2000/svg" xmlns:xlink="http://www.w3.org/1999/xlink" version="1.1" id="Capa_1" x="0px" y="0px" viewBox="0 0 297 297" style="enable-background:new 0 0 297 297;" xml:space="preserve" width="512px" height="512px">
<g>
	<path d="M73.705,257.361c2.4-2.114,58.801-52.384,58.801-104.492c0-36.026-29.301-65.337-65.314-65.337   c-36.015,0-65.315,29.311-65.315,65.337c0,52.108,56.4,102.378,58.801,104.492c1.862,1.639,4.188,2.459,6.515,2.459   S71.843,259,73.705,257.361z M21.588,152.869c0-25.158,20.457-45.626,45.604-45.626c25.146,0,45.604,20.468,45.604,45.626   c0,33.797-31.617,69.365-45.604,83.444C53.204,222.234,21.588,186.666,21.588,152.869z" fill="#0003ab"/>
	<path d="M223.295,169.831c1.862,1.64,4.188,2.459,6.514,2.459s4.652-0.819,6.515-2.459c2.4-2.114,58.801-52.385,58.801-104.491   c0-36.028-29.301-65.34-65.315-65.34c-36.014,0-65.314,29.312-65.314,65.34C164.494,117.446,220.895,167.717,223.295,169.831z    M229.809,19.712c25.146,0,45.603,20.469,45.603,45.628c0,33.795-31.616,69.364-45.603,83.443   c-13.986-14.079-45.604-49.648-45.604-83.443C184.205,40.181,204.663,19.712,229.809,19.712z" fill="#0003ab"/>
	<path d="M229.666,181.121l-162.618,97.57c-4.668,2.801-6.182,8.855-3.382,13.521c1.849,3.081,5.113,4.787,8.462,4.787   c1.726,0,3.473-0.453,5.061-1.405l162.617-97.571c4.668-2.801,6.182-8.855,3.382-13.521   C240.387,179.833,234.332,178.322,229.666,181.121z" fill="#0003ab"/>
	<path d="M81.183,177.446c0.455,0.757,1.232,1.248,2.038,1.652c0.819,0.409,1.777,0.617,2.846,0.617c1.844,0,3.441-0.662,4.749-1.97   c1.306-1.306,1.967-2.803,1.967-4.452c0-1.362-0.516-3.236-1.617-5.878l-13.993-34.684c-0.437-1.055-0.977-2.053-1.606-2.968   c-0.724-1.05-1.681-1.916-2.846-2.576c-1.203-0.68-2.669-1.024-4.357-1.024c-1.668,0-3.122,0.345-4.324,1.025   c-1.17,0.661-2.131,1.545-2.858,2.629c-0.634,0.945-1.229,2.125-1.77,3.506l-14.658,37.42c-0.276,0.888-0.417,1.768-0.417,2.615   c0,1.665,0.698,3.211,2.018,4.47c1.313,1.253,2.86,1.887,4.601,1.887c2.595,0,4.097-1.034,4.683-2.044   c1.396-2.406,4.377-10.228,4.377-10.228h16.775C76.788,167.444,79.774,175.106,81.183,177.446z M63.997,156.205l4.317-12.036   l4.396,12.036H63.997z" fill="#0003ab"/>
	<path d="M239.746,90.789c2.061-0.271,3.926-0.752,5.574-1.441c2.686-1.18,4.85-3.031,6.431-5.504   c1.575-2.461,2.373-5.257,2.373-8.311c0-3.904-1.337-8.867-7.129-12.034c3.201-2.535,4.871-6.01,4.871-10.218   c0-1.62-0.271-3.187-0.807-4.653c-0.535-1.463-1.323-2.819-2.34-4.028c-1.009-1.199-2.189-2.205-3.497-2.984   c-1.539-0.934-3.291-1.571-5.211-1.896c-1.784-0.301-3.897-0.452-6.282-0.452h-15.544c-2.605,0-4.588,0.662-5.893,1.968   c-1.307,1.306-1.969,3.312-1.969,5.959v36.062c0,2.588,0.641,4.57,1.903,5.893c1.287,1.35,3.292,2.034,5.958,2.034h14.66   C235.453,91.183,237.775,91.05,239.746,90.789z M223.985,50.395h8.238c2.348,0,4.25,1.903,4.25,4.251   c0,2.348-1.902,4.321-4.25,4.321h-8.238V50.395z M223.985,69.879h11.16c2.773,0,5.023,2.25,5.023,5.023   c0,2.773-2.249,5.041-5.023,5.041h-11.16V69.879z" fill="#0003ab"/>
</g>
<g>
</g>
<g>
</g>
<g>
</g>
<g>
</g>
<g>
</g>
<g>
</g>
<g>
</g>
<g>
</g>
<g>
</g>
<g>
</g>
<g>
</g>
<g>
</g>
<g>
</g>
<g>
</g>
<g>
</g>
</svg>
